<svg xmlns="http://www.w3.org/2000/svg" version="1.1" xmlns:xlink="http://www.w3.org/1999/xlink" xmlns:svgjs="http://svgjs.dev/svgjs" width="1000" height="1000" viewBox="0 0 1000 1000"><rect width="1000" height="1000" fill="#ffffff"></rect><g transform="matrix(0.7,0,0,0.7,149.57575757575756,282.1265587044535)"><svg viewBox="0 0 396 247" data-background-color="#ffffff" preserveAspectRatio="xMidYMid meet" height="623" width="1000" xmlns="http://www.w3.org/2000/svg" xmlns:xlink="http://www.w3.org/1999/xlink"><g id="tight-bounds" transform="matrix(1,0,0,1,0.2400000000000091,-0.09999999999999432)"><svg viewBox="0 0 395.52 247.2" height="247.2" width="395.52"><g><svg></svg></g><g><svg viewBox="0 0 395.52 247.2" height="247.2" width="395.52"><g><g><path xmlns="http://www.w3.org/2000/svg" d="M244.465 239.336c-14.497 5.243-30.065 7.864-46.705 7.864-16.184 0-31.456-2.621-45.816-7.864-7.447-2.719-14.403-6.13-20.869-10.234h134.272c-6.427 4.104-13.388 7.515-20.882 10.234zM152.833 7.864c14.223-5.243 29.199-7.864 44.927-7.864 16.184 0 31.456 2.621 45.816 7.864 7.425 2.711 14.362 6.122 20.811 10.234l-132.297 0c6.451-4.112 13.366-7.523 20.743-10.234z" fill="#ff0000" fill-rule="nonzero" stroke="none" stroke-width="1" stroke-linecap="butt" stroke-linejoin="miter" stroke-miterlimit="10" stroke-dasharray="" stroke-dashoffset="0" font-family="none" font-weight="none" font-size="none" text-anchor="none" style="mix-blend-mode: normal" data-fill-palette-color="tertiary"></path></g></g><g transform="matrix(1,0,0,1,0,41.93225300575011)"><svg viewBox="0 0 395.52 163.33549398849976" height="163.33549398849976" width="395.52"><g><svg viewBox="0 0 395.52 163.33549398849976" height="163.33549398849976" width="395.52"><g><svg viewBox="0 0 395.52 163.33549398849976" height="163.33549398849976" width="395.52"><g><svg viewBox="0 0 395.52 163.33549398849976" height="163.33549398849976" width="395.52"><g><svg viewBox="0 0 395.52 163.33549398849976" height="163.33549398849976" width="395.52"><g><svg viewBox="0 0 395.52 163.33549398849976" height="163.33549398849976" width="395.52"><g transform="matrix(1,0,0,1,0,0)"><svg width="395.52" viewBox="2.5 -38.79999923706055 95.6500015258789 39.5" height="163.33549398849976" data-palette-color="#ff0000"><path d="M10.55-17.35L10.55-17.35Q10.55-14.8 11.18-12.75 11.8-10.7 12.98-9.22 14.15-7.75 15.85-6.95 17.55-6.15 19.75-6.15L19.75-6.15Q21.9-6.15 23.63-6.95 25.35-7.75 26.53-9.22 27.7-10.7 28.33-12.75 28.95-14.8 28.95-17.35L28.95-17.35Q28.95-19.9 28.33-21.98 27.7-24.05 26.53-25.53 25.35-27 23.63-27.8 21.9-28.6 19.75-28.6L19.75-28.6Q17.55-28.6 15.85-27.78 14.15-26.95 12.98-25.48 11.8-24 11.18-21.93 10.55-19.85 10.55-17.35ZM37-17.35L37-17.35Q37-12.9 35.68-9.53 34.35-6.15 32.05-3.88 29.75-1.6 26.58-0.45 23.4 0.7 19.75 0.7L19.75 0.7Q16.2 0.7 13.05-0.45 9.9-1.6 7.55-3.88 5.2-6.15 3.85-9.53 2.5-12.9 2.5-17.35L2.5-17.35Q2.5-21.8 3.9-25.18 5.3-28.55 7.68-30.85 10.05-33.15 13.18-34.3 16.3-35.45 19.75-35.45L19.75-35.45Q23.3-35.45 26.45-34.3 29.6-33.15 31.95-30.85 34.3-28.55 35.65-25.18 37-21.8 37-17.35ZM49.35-13.35L49.35-13.35Q49.35-9.9 50.9-7.8 52.45-5.7 55.5-5.7L55.5-5.7Q56.5-5.7 57.35-5.78 58.2-5.85 58.75-5.95L58.75-5.95 58.75-19.5Q58.05-19.95 56.92-20.25 55.8-20.55 54.65-20.55L54.65-20.55Q49.35-20.55 49.35-13.35ZM66.2-38.8L66.2-0.85Q65.2-0.55 63.9-0.28 62.6 0 61.17 0.2 59.75 0.4 58.27 0.53 56.8 0.65 55.45 0.65L55.45 0.65Q52.2 0.65 49.65-0.3 47.1-1.25 45.35-3.03 43.6-4.8 42.67-7.33 41.75-9.85 41.75-13L41.75-13Q41.75-16.2 42.55-18.78 43.35-21.35 44.85-23.15 46.35-24.95 48.52-25.9 50.7-26.85 53.5-26.85L53.5-26.85Q55.05-26.85 56.27-26.55 57.5-26.25 58.75-25.7L58.75-25.7 58.75-37.6 66.2-38.8ZM80.65-38.8L80.65-16.8Q81.75-18 82.92-19.3 84.1-20.6 85.2-21.88 86.3-23.15 87.27-24.3 88.25-25.45 88.95-26.3L88.95-26.3 97.8-26.3Q95.15-23.25 92.62-20.48 90.1-17.7 87.1-14.75L87.1-14.75Q88.6-13.4 90.2-11.53 91.8-9.65 93.3-7.65 94.8-5.65 96.05-3.65 97.3-1.65 98.15 0L98.15 0 89.6 0Q88.8-1.3 87.77-2.88 86.75-4.45 85.6-6.03 84.45-7.6 83.17-9.05 81.9-10.5 80.65-11.5L80.65-11.5 80.65 0 73.2 0 73.2-37.6 80.65-38.8Z" opacity="1" transform="matrix(1,0,0,1,0,0)" fill="#ff0000" class="undefined-text-0" data-fill-palette-color="primary" id="text-0"></path></svg></g></svg></g></svg></g></svg></g></svg></g></svg></g></svg></g></svg></g><defs></defs></svg><rect width="395.52" height="247.2" fill="none" stroke="none" visibility="hidden"></rect></g></svg></g></svg>